<?xml version="1.0" encoding="UTF-8" standalone="no"?>
<svg
   sodipodi:docname="Ecosocialist.svg"
   inkscape:version="1.1.2 (0a00cf5339, 2022-02-04)"
   id="svg879"
   version="1.1"
   viewBox="0 0 264.58332 211.66666"
   height="800"
   width="1000"
   xml:space="preserve"
   xmlns:inkscape="http://www.inkscape.org/namespaces/inkscape"
   xmlns:sodipodi="http://sodipodi.sourceforge.net/DTD/sodipodi-0.dtd"
   xmlns:xlink="http://www.w3.org/1999/xlink"
   xmlns="http://www.w3.org/2000/svg"
   xmlns:svg="http://www.w3.org/2000/svg"
   xmlns:rdf="http://www.w3.org/1999/02/22-rdf-syntax-ns#"
   xmlns:cc="http://creativecommons.org/ns#"
   xmlns:dc="http://purl.org/dc/elements/1.1/"><defs
     id="defs873"><linearGradient
       inkscape:collect="always"
       id="linearGradient18948"><stop
         style="stop-color:#ffffff;stop-opacity:1;"
         offset="0.65688819"
         id="stop18944" /><stop
         style="stop-color:#d1a7a7;stop-opacity:1;"
         offset="1"
         id="stop18946" /></linearGradient><linearGradient
       inkscape:collect="always"
       id="linearGradient14450"><stop
         style="stop-color:#ffffff;stop-opacity:1;"
         offset="0.66000003"
         id="stop14446" /><stop
         style="stop-color:#d1a7a7;stop-opacity:1;"
         offset="1"
         id="stop14448" /></linearGradient><inkscape:path-effect
       effect="bspline"
       id="path-effect12429"
       is_visible="true"
       lpeversion="1"
       weight="33.333333"
       steps="2"
       helper_size="0"
       apply_no_weight="true"
       apply_with_weight="true"
       only_selected="false" /><linearGradient
       inkscape:collect="always"
       xlink:href="#linearGradient14450"
       id="linearGradient17486"
       gradientUnits="userSpaceOnUse"
       x1="167.97791"
       y1="114.0155"
       x2="163.18559"
       y2="89.562225"
       gradientTransform="matrix(-2.785541,0,0,2.4496531,562.14045,-164.63237)" /><linearGradient
       inkscape:collect="always"
       xlink:href="#linearGradient18948"
       id="linearGradient18216"
       gradientUnits="userSpaceOnUse"
       gradientTransform="matrix(2.785541,0,0,2.4496531,-277.72813,-162.98886)"
       x1="167.97791"
       y1="114.0155"
       x2="172.78038"
       y2="89.51033" /><linearGradient
       inkscape:collect="always"
       xlink:href="#linearGradient25959-6"
       id="linearGradient25961-3"
       x1="167.57329"
       y1="129.91165"
       x2="136.50044"
       y2="145.02629"
       gradientUnits="userSpaceOnUse"
       gradientTransform="matrix(-0.35909545,1.8758697,1.8463806,0.36483068,-52.990783,-182.4578)" /><linearGradient
       inkscape:collect="always"
       id="linearGradient25959-6"><stop
         style="stop-color:#004600;stop-opacity:1"
         offset="0"
         id="stop25955-7" /><stop
         style="stop-color:#22b24d;stop-opacity:1;"
         offset="0.39871383"
         id="stop25957-5" /></linearGradient></defs><sodipodi:namedview
     inkscape:window-maximized="0"
     inkscape:window-y="609"
     inkscape:window-x="127"
     inkscape:window-height="1465"
     inkscape:window-width="2250"
     units="px"
     showgrid="false"
     inkscape:document-rotation="0"
     inkscape:current-layer="layer1"
     inkscape:document-units="px"
     inkscape:cy="299.85113"
     inkscape:cx="573.93061"
     inkscape:zoom="1.2222732"
     inkscape:pageshadow="2"
     inkscape:pageopacity="0.0"
     borderopacity="1.0"
     bordercolor="#666666"
     pagecolor="#ffffff"
     id="base"
     inkscape:showpageshadow="2"
     inkscape:pagecheckerboard="0"
     inkscape:deskcolor="#d1d1d1" /><metadata
     id="metadata876"><rdf:RDF><cc:Work
         rdf:about=""><dc:format>image/svg+xml</dc:format><dc:type
           rdf:resource="http://purl.org/dc/dcmitype/StillImage" /></cc:Work></rdf:RDF></metadata><g
     id="layer1"
     inkscape:groupmode="layer"
     inkscape:label="Layer 1"><ellipse
       style="fill:#ed1d26;fill-opacity:1;stroke:#6f1515;stroke-width:7.51481;stroke-dasharray:none"
       id="path7568"
       cx="145.52083"
       cy="105.83331"
       rx="102.07593"
       ry="102.07591" /><path
       style="fill:url(#linearGradient17486);fill-opacity:1;fill-rule:nonzero;stroke:#6f1515;stroke-width:5.63611;stroke-dasharray:none"
       d="m 66.351199,107.73995 c 0,0 15.752242,-10.275034 59.357161,0 9.81853,-32.224609 -2.3126,-50.165968 -30.834873,-50.165968 -28.522288,0 -35.460166,14.236284 -28.522288,50.165968 z"
       id="path17482"
       inkscape:label="path17482" /><path
       style="fill:url(#linearGradient18216);fill-opacity:1;fill-rule:nonzero;stroke:#6f1515;stroke-width:5.63611;stroke-dasharray:none"
       d="m 218.06112,109.38346 c 0,0 -15.75224,-10.274999 -59.35717,0 -9.81853,-32.224591 2.31261,-50.16598 30.83488,-50.16598 28.52229,0 35.46017,14.236303 28.52229,50.16598 z"
       id="path18214" /><path
       d="m 120.23892,117.93077 6.7654,1.33677 c 32.56542,6.43467 43.82317,27.82315 39.46332,50.59849 l -1.25131,6.53669 c -10.04927,-2.74181 -15.59884,-7.18395 -21.3153,-17.04487 -2.81044,-4.84969 -4.95795,-4.91021 -4.15399,-2.63625 5.53319,15.65982 15.30779,24.82458 32.98752,28.63896 l 1.24988,0.25637 -1.31578,6.87349 c -4.6106,-0.911 -8.71874,-2.13649 -12.39666,-3.68358 -4.52853,-0.0745 -10.54493,-0.84949 -18.04778,-2.33201 -18.68271,-3.69156 -30.88173,-22.07025 -27.24819,-41.0514 1.31579,-6.87347 6.01426,-13.07854 5.2631,-27.49388 z"
       id="path25225-3"
       style="fill:url(#linearGradient25961-3);fill-opacity:1;stroke-width:6.16298" /></g><g
     inkscape:groupmode="layer"
     id="layer2"
     inkscape:label="Layer 2"
     transform="matrix(-0.2816504,0.59471935,-0.59471935,-0.2816504,165.67396,99.758796)"
     style="display:inline"><rect
       x="-193.23546"
       y="-123.78177"
       transform="matrix(-0.71209345,-0.7020847,0.71200903,-0.70217031,0,0)"
       style="display:inline;fill:#a85d5d;stroke-width:0.264594;stroke:#000000;stroke-opacity:1"
       width="19.471958"
       height="175.7841"
       id="rect28807" /><path
       style="fill:#cbd0d8;stroke-width:0.264583;stroke:#000000;stroke-opacity:1"
       d="m 178.37456,33.93987 c -26.88548,26.510346 -18.04781,65.645443 -18.04781,65.645443 0,0 39.68879,8.712997 66.57431,-17.801003 z m 5.04855,56.923075 c -5.61653,0.522766 -10.6194,0.365555 -14.30984,0.05409 -0.30893,-3.635378 -0.46946,-8.564842 0.0564,-14.110441 0.6283,-6.567747 2.09358,-12.724778 4.35775,-18.299797 1.46551,-3.604303 3.26844,-6.982901 5.4099,-10.103804 l 33.29661,32.828608 c -3.16844,2.108365 -6.59414,3.890685 -10.24918,5.332092 -5.65353,2.232824 -11.90066,3.678457 -18.56162,4.299252 z"
       id="path28809" /><polygon
       style="display:inline;fill:#cbd0d8;stroke-width:0.574698;stroke:none;stroke-opacity:1"
       points="350.656,191.348 320.494,161.185 350.656,131.03 380.819,161.185 "
       id="polygon28813"
       transform="matrix(0.46364572,-0.0039447,-0.0039447,0.45718444,-2.947403,28.588266)" /><path
       style="fill:#cbd0d8;stroke-width:0.264583;stroke:#000000;stroke-opacity:1"
       d="M 76.799145,181.96506 45.599237,151.20368 c -70.540324,69.52342 -46.37421867,107.25677 -46.37421867,107.25677 0,0 38.26950867,23.83162 108.76714167,-45.74081 z"
       id="path28819" /><path
       style="display:inline;fill:#a9b1bc;stroke-width:0.264583;stroke:none;stroke-opacity:1"
       d="m 65.280444,200.15755 c 1.949852,-1.92291 1.976471,-5.00799 0.05952,-6.898 -1.917472,-1.88361 -5.046154,-1.85699 -6.988996,0.0595 v 0 0 l -27.331123,26.953 v 0 c -1.949856,1.92337 -1.976475,5.00845 -0.05952,6.89846 1.917476,1.88315 5.046157,1.85653 6.988996,-0.0595 z"
       id="path28821" /></g><g
     inkscape:groupmode="layer"
     id="layer3"
     inkscape:label="Layer 3"
     transform="matrix(0.65251429,-0.17261122,0.17261122,0.65251429,46.164819,118.83879)"><polygon
       style="display:inline;fill:#a85d5d;fill-opacity:1;stroke-width:0.552327;stroke:#000000;stroke-opacity:1"
       points="187.45,122.307 44.79,264.957 24.24,244.397 166.89,101.747 "
       id="polygon29330"
       transform="matrix(0.47917015,7.7434487e-5,7.7434548e-5,0.47889792,184.81382,37.833799)" /><path
       style="display:inline;fill:#cbd0d8;fill-opacity:1;stroke-width:0.264998;stroke-dasharray:none;stroke:#000000;stroke-opacity:1"
       d="m 309.50482,90.128295 c 1.04956,1.053745 1.04983,2.768199 6.2e-4,3.821605 L 292.421,111.01985 c -1.05401,1.0534 -2.76944,1.05313 -3.81899,-6.2e-4 l -41.11465,-41.086504 11.41199,-11.410293 23.72927,4.749713 z"
       id="path29334" /></g></svg>
