<?xml version="1.0" encoding="UTF-8" standalone="no"?>
<svg
   sodipodi:docname="HammerAndShovel.svg"
   inkscape:version="1.1.2 (0a00cf5339, 2022-02-04)"
   id="svg879"
   version="1.1"
   viewBox="0 0 211.66666 211.66666"
   height="800"
   width="800"
   xml:space="preserve"
   xmlns:inkscape="http://www.inkscape.org/namespaces/inkscape"
   xmlns:sodipodi="http://sodipodi.sourceforge.net/DTD/sodipodi-0.dtd"
   xmlns:xlink="http://www.w3.org/1999/xlink"
   xmlns="http://www.w3.org/2000/svg"
   xmlns:svg="http://www.w3.org/2000/svg"
   xmlns:rdf="http://www.w3.org/1999/02/22-rdf-syntax-ns#"
   xmlns:cc="http://creativecommons.org/ns#"
   xmlns:dc="http://purl.org/dc/elements/1.1/"><defs
     id="defs873"><linearGradient
       id="linearGradient25959"
       inkscape:swatch="gradient"><stop
         style="stop-color:#004600;stop-opacity:1"
         offset="0"
         id="stop25955" /><stop
         style="stop-color:#22b24d;stop-opacity:1;"
         offset="0.39871383"
         id="stop25957" /></linearGradient><inkscape:path-effect
       effect="bspline"
       id="path-effect12429"
       is_visible="true"
       lpeversion="1"
       weight="33.333333"
       steps="2"
       helper_size="0"
       apply_no_weight="true"
       apply_with_weight="true"
       only_selected="false" /><linearGradient
       inkscape:collect="always"
       xlink:href="#linearGradient25959-3"
       id="linearGradient25961"
       x1="167.57329"
       y1="129.91165"
       x2="136.50044"
       y2="145.02629"
       gradientUnits="userSpaceOnUse"
       gradientTransform="matrix(2.119637,0.40523815,0.41224005,-2.0836349,-220.17112,392.3629)" /><linearGradient
       inkscape:collect="always"
       id="linearGradient25959-3"><stop
         style="stop-color:#004600;stop-opacity:1"
         offset="0"
         id="stop25955-6" /><stop
         style="stop-color:#22b24d;stop-opacity:1;"
         offset="0.39871383"
         id="stop25957-7" /></linearGradient></defs><sodipodi:namedview
     inkscape:window-maximized="0"
     inkscape:window-y="87"
     inkscape:window-x="487"
     inkscape:window-height="1392"
     inkscape:window-width="2503"
     units="px"
     showgrid="false"
     inkscape:document-rotation="0"
     inkscape:current-layer="svg879"
     inkscape:document-units="px"
     inkscape:cy="507.25157"
     inkscape:cx="361.62128"
     inkscape:zoom="0.6111366"
     inkscape:pageshadow="2"
     inkscape:pageopacity="0.0"
     borderopacity="1.0"
     bordercolor="#666666"
     pagecolor="#ffffff"
     id="base"
     inkscape:showpageshadow="2"
     inkscape:pagecheckerboard="0"
     inkscape:deskcolor="#d1d1d1" /><metadata
     id="metadata876"><rdf:RDF><cc:Work
         rdf:about=""><dc:format>image/svg+xml</dc:format><dc:type
           rdf:resource="http://purl.org/dc/dcmitype/StillImage" /></cc:Work></rdf:RDF></metadata><g
     inkscape:groupmode="layer"
     id="layer2"
     inkscape:label="Layer 2"
     transform="matrix(-0.6579774,-0.00915397,0.00915397,-0.6579774,189.24267,175.95436)"
     style="display:inline" /><g
     inkscape:groupmode="layer"
     id="layer3"
     inkscape:label="Layer 3"
     transform="matrix(-0.67486628,-0.01118223,-0.01118223,0.67486628,272.8381,58.515598)"
     style="display:inline"><polygon
       style="display:inline;fill:#a85d5d;fill-opacity:1;stroke:#000000;stroke-opacity:1"
       points="166.89,101.747 187.45,122.307 44.79,264.957 24.24,244.397 "
       id="polygon29330"
       transform="matrix(0.64143525,-2.0498334e-4,-2.0500858e-4,0.65380362,186.34787,-53.36916)" /><path
       style="display:inline;fill:#cbd0d8;fill-opacity:1;stroke-width:0.648605;stroke-dasharray:none;stroke:#000000;stroke-opacity:1"
       d="m 354.69657,18.915525 c 1.40429,1.43792 1.40354,3.778539 -0.002,5.217357 l -22.88089,23.315425 c -1.41158,1.438829 -3.70792,1.439557 -5.11224,0.0017 l -55.01114,-56.0657396 15.28389,-15.5850344 31.76184,6.469048 z"
       id="path29334" /></g><rect
     x="140.37488"
     y="-91.954674"
     transform="matrix(0.69032522,0.72349919,-0.71018166,0.70401847,0,0)"
     style="display:inline;fill:#a85d5d;stroke-width:0.426176;stroke:#000000;stroke-opacity:1"
     width="18.18421"
     height="161.28424"
     id="rect28807" /><path
     style="display:inline;fill:#cbd0d8;stroke-width:0.426142;stroke:#000000;stroke-opacity:1"
     d="M 43.931957,211.66666 C 68.536418,187.27914 60.68728,150.2628 60.68728,150.2628 c 0,0 -36.08279,-9.03023 -60.6872834589422,15.36075 z m -4.311368,-53.67799 c 5.114978,-0.37452 9.668001,-0.12183 13.025621,0.24839 0.263062,3.42786 0.384592,8.07051 -0.121701,13.27869 -0.604671,6.168 -1.969145,11.93195 -4.057881,17.13146 -1.351965,3.36148 -3.009902,6.50349 -4.974732,9.3959 L 13.347863,166.4505 c 2.894553,-1.91801 6.021646,-3.52377 9.355798,-4.80386 5.157185,-1.98317 10.850773,-3.21303 16.916953,-3.65797 z"
     id="path28809" /><polygon
     style="display:inline;fill:#cbd0d8"
     points="380.819,161.185 350.656,191.348 320.494,161.185 350.656,131.03 "
     id="polygon28813"
     transform="matrix(-0.42204766,-0.00598494,0.00587165,-0.43019063,208.9514,220.49572)" /><path
     style="display:inline;fill:#cbd0d8;stroke-width:0.426142;stroke:#000000;stroke-opacity:1;stroke-linejoin:miter;stroke-linecap:butt"
     d="m 137.1283,74.479225 28.24587,29.603235 c 64.55536,-63.955668 42.74671,-99.9733588 42.74671,-99.9733588 0,0 -34.71546,-23.2292532 -99.2322,40.7734258 z"
     id="path28819" /><path
     style="display:inline;fill:#a9b1bc;stroke-width:0.426142"
     d="m 147.70384,57.598517 c -1.78444,1.768938 -1.82405,4.671863 -0.0887,6.490717 1.73598,1.812834 4.58393,1.853221 6.36195,0.09022 v 0 0 l 25.0123,-24.794816 v 0 c 1.78444,-1.769368 1.82405,-4.672296 0.0887,-6.491147 -1.73597,-1.812404 -4.58393,-1.852792 -6.36194,-0.09022 z"
     id="path28821" /><path
     d="m 119.25258,196.87371 1.51051,-7.63473 c 7.27086,-36.74999 31.43875,-49.45432 57.17372,-44.53425 l 7.38612,1.41209 c -3.09811,11.34057 -8.11749,17.60325 -19.25983,24.05427 -5.4799,3.17157 -5.54829,5.59503 -2.97883,4.68776 17.6948,-6.24419 28.0505,-17.2748 32.36057,-37.22633 l 0.28968,-1.41047 7.7667,1.48485 c -1.02939,5.20305 -2.41414,9.83907 -4.16227,13.98958 -0.0841,5.11045 -0.95987,11.89994 -2.63506,20.36687 -4.17126,21.08338 -24.93826,34.84995 -46.38596,30.74951 -7.76668,-1.48487 -14.7781,-6.78707 -31.06673,-5.93939 z"
     id="path25225-5"
     style="fill:url(#linearGradient25961);fill-opacity:1;stroke:#000000;stroke-width:0.387542;stroke-miterlimit:4;stroke-dasharray:none;stroke-opacity:1" /></svg>
